<svg xmlns="http://www.w3.org/2000/svg" viewBox="0 0 699 203" width="699" height="203">
<path d="M50,6 L58,42 L94,50 L58,58 L50,94 L42,58 L6,50 L42,42 Z" transform="translate(60.98,47.54) scale(1.10880)" fill="#C6A15B"/>
<g transform="translate(218.43,0)"><path d="M73 0V700H351Q415 700 465.5 674.5Q516 649 544.5 602.5Q573 556 573 491V478Q573 413 543.5 366.0Q514 319 464.0 294.0Q414 269 351 269H181V0ZM181 367H340Q397 367 431.0 397.0Q465 427 465 479V489Q465 542 431.0 572.0Q397 602 340 602H181Z" transform="translate(0.00,144.98) scale(0.12000,-0.12000)" fill="#0B0B12"/>
<path d="M307 -14Q233 -14 175.5 16.5Q118 47 85.0 104.0Q52 161 52 239V254Q52 332 85.0 388.5Q118 445 175.5 476.0Q233 507 307 507Q381 507 439.0 476.0Q497 445 530.0 388.5Q563 332 563 254V239Q563 161 530.0 104.0Q497 47 439.0 16.5Q381 -14 307 -14ZM307 78Q375 78 417.5 121.5Q460 165 460 242V251Q460 328 418.0 371.5Q376 415 307 415Q240 415 197.5 371.5Q155 328 155 251V242Q155 165 197.5 121.5Q240 78 307 78Z" transform="translate(72.36,144.98) scale(0.12000,-0.12000)" fill="#0B0B12"/>
<path d="M76 0V700H179V0Z" transform="translate(146.16,144.98) scale(0.12000,-0.12000)" fill="#0B0B12"/>
<path d="M229 -14Q176 -14 134.5 4.0Q93 22 68.5 57.0Q44 92 44 142Q44 193 68.5 226.5Q93 260 135.5 277.0Q178 294 232 294H382V326Q382 369 356.0 395.0Q330 421 276 421Q223 421 195.0 396.0Q167 371 158 331L62 362Q74 402 100.5 434.5Q127 467 171.0 487.0Q215 507 277 507Q373 507 428.0 458.0Q483 409 483 319V116Q483 86 511 86H553V0H476Q441 0 419.0 18.0Q397 36 397 67V70H382Q374 55 358.0 35.0Q342 15 311.0 0.5Q280 -14 229 -14ZM244 71Q306 71 344.0 106.5Q382 142 382 204V214H238Q197 214 172.0 196.5Q147 179 147 145Q147 111 173.0 91.0Q199 71 244 71Z" transform="translate(176.88,144.98) scale(0.12000,-0.12000)" fill="#0B0B12"/>
<path d="M76 0V493H177V435H193Q205 466 231.5 480.5Q258 495 297 495H356V402H293Q243 402 211.0 374.5Q179 347 179 290V0Z" transform="translate(246.12,144.98) scale(0.12000,-0.12000)" fill="#0B0B12"/>
<path d="M76 0V493H179V0ZM128 560Q98 560 77.5 579.5Q57 599 57 630Q57 661 77.5 680.5Q98 700 128 700Q159 700 179.0 680.5Q199 661 199 630Q199 599 179.0 579.5Q159 560 128 560Z" transform="translate(292.56,144.98) scale(0.12000,-0.12000)" fill="#0B0B12"/>
<path d="M278 -14Q184 -14 122.0 28.0Q60 70 46 155L142 178Q150 137 169.0 113.0Q188 89 216.5 79.0Q245 69 278 69Q327 69 353.5 88.0Q380 107 380 137Q380 167 355.0 181.0Q330 195 281 204L247 210Q197 219 156.0 236.0Q115 253 91.0 283.0Q67 313 67 360Q67 430 119.0 468.5Q171 507 257 507Q340 507 393.5 469.5Q447 432 463 368L367 341Q358 386 329.0 404.5Q300 423 257 423Q215 423 191.0 407.5Q167 392 167 364Q167 334 190.5 320.0Q214 306 254 299L289 293Q342 284 386.0 268.0Q430 252 455.5 222.0Q481 192 481 142Q481 68 426.0 27.0Q371 -14 278 -14Z" transform="translate(323.28,144.98) scale(0.12000,-0.12000)" fill="#0B0B12"/>
<path d="M138 -14Q103 -14 79.5 9.0Q56 32 56 68Q56 104 79.5 126.5Q103 149 138 149Q173 149 196.5 126.0Q220 103 220 68Q220 32 196.5 9.0Q173 -14 138 -14Z" transform="translate(386.28,144.98) scale(0.12000,-0.12000)" fill="#C6A15B"/></g>
</svg>